<svg width="100" height="100" viewBox="0 0 100 100" fill="none" stroke="white" xmlns="http://www.w3.org/2000/svg" style="stroke-width: 0.239743px;"><g style="transform-origin: 50% center; transform: rotate(-30deg); opacity: 1;"><ellipse cx="46.9790599999542" cy="50" rx="23.64207829142758" ry="47.28415658285516"/><ellipse cx="41.407631428525505" cy="50" rx="22.936059956508373" ry="45.872119913016746"/><ellipse cx="35.83620285709709" cy="50" rx="21.80306345106375" ry="43.6061269021275"/><ellipse cx="30.264774285668402" cy="50" rx="20.163716372377245" ry="40.32743274475449"/><ellipse cx="24.69334571423999" cy="50" rx="17.829327923778006" ry="35.65865584755601"/><ellipse cx="19.1219171428113" cy="50" rx="14.386292635112676" ry="28.772585270225353"/><ellipse cx="13.550488571382886" cy="50" rx="8.437938766223356" ry="16.87587753244671"/><ellipse cx="85.9790599999542" cy="50" rx="9.14829483769917" ry="18.29658967539834"/><ellipse cx="80.40763142852549" cy="50" rx="14.739538958754782" ry="29.479077917509564"/><ellipse cx="74.8362028570971" cy="50" rx="18.060959088614702" ry="36.121918177229404"/><ellipse cx="69.2647742856684" cy="50" rx="20.32545060199262" ry="40.65090120398524"/><ellipse cx="63.69334571423998" cy="50" rx="21.91654900201404" ry="43.83309800402808"/><ellipse cx="58.1219171428113" cy="50" rx="23.01182693284652" ry="46.02365386569304"/><ellipse cx="52.550488571382886" cy="50" rx="23.681446065600404" ry="47.36289213120081"/><ellipse cx="46.9790599999542" cy="50" rx="23.64207829142758" ry="47.28415658285516"/></g></svg>